<?xml version="1.0" encoding="UTF-8"?>
<svg id="logo" xmlns="http://www.w3.org/2000/svg" version="1.1" viewBox="0 0 499.1 150.5">
  <defs>
    <style>
      .cls-1 {
        fill: #fff;
        stroke-width: 0px;
      }
    </style>
  </defs>
  <g>
    <path class="cls-1" d="M75,0C35.5,0,3.1,30.5,0,69.2l40.3,16.7c3.4-2.3,7.5-3.7,12-3.7s.8,0,1.2,0l17.9-26c0-.1,0-.2,0-.4,0-15.6,12.7-28.4,28.4-28.4s28.4,12.7,28.4,28.4-12.7,28.4-28.4,28.4-.4,0-.6,0l-25.6,18.2c0,.3,0,.7,0,1,0,11.7-9.6,21.3-21.3,21.3s-18.9-7.4-20.9-17.1l-28.8-11.9c8.9,31.6,37.9,54.7,72.4,54.7s75.2-33.7,75.2-75.2S116.5,0,75,0Z"/>
    <path class="cls-1" d="M47.1,114.1l-9.2-3.8c1.6,3.4,4.5,6.3,8.2,7.8,8.1,3.4,17.5-.5,20.9-8.6,1.6-3.9,1.7-8.3,0-12.2-1.6-3.9-4.7-7-8.6-8.7-3.9-1.6-8.1-1.6-11.8-.2l9.5,3.9c6,2.5,8.8,9.4,6.3,15.4-2.5,6-9.4,8.8-15.4,6.3Z"/>
    <path class="cls-1" d="M118.7,55.8c0-10.4-8.5-18.9-18.9-18.9s-18.9,8.5-18.9,18.9,8.5,18.9,18.9,18.9,18.9-8.5,18.9-18.9ZM85.6,55.8c0-7.8,6.4-14.2,14.2-14.2s14.2,6.4,14.2,14.2-6.4,14.2-14.2,14.2-14.2-6.4-14.2-14.2Z"/>
  </g>
  <g>
    <path class="cls-1" d="M230.5,51.5l-5,8.9c-3.9-2.7-9.1-4.3-13.7-4.3s-8.5,2.2-8.5,6.1,5.8,5.8,14.3,8.9c9.2,3.3,14.5,7.1,14.5,15.5s-9.1,18-22.1,18-14-1.6-19.9-5.2l3.7-9.8c4.8,2.5,10.5,4,15.6,4s10.2-2.5,10.2-6.3-5-5.6-13.1-8.3c-9.2-3.1-15.6-7.1-15.6-16.4s8.4-16.6,20.6-16.6,15.3,2.7,19,5.6Z"/>
    <path class="cls-1" d="M269.9,57.1v46.5h-11.9v-46.5h-17.2v-10.2h46.3v10.2h-17.2Z"/>
    <path class="cls-1" d="M312.1,57v12.8h22.7v10.2h-22.7v13.3h26.4v10.3h-38.2v-56.7h38.2v10.1h-26.4Z"/>
    <path class="cls-1" d="M365,92.6l-3.8,11h-12.4l21.2-56.7h11.9l21.9,56.7h-12.9l-3.8-11h-22.2ZM375.9,60.4l-7.7,22.7h15.6l-7.9-22.7Z"/>
    <path class="cls-1" d="M464.7,68.8l-15.5,33.1h-6.7l-15.3-32.8v34.5h-11.4v-56.7h11.3l19,40.9,18.4-40.9h11.4v56.7h-11.4v-34.8Z"/>
    <path class="cls-1" d="M499.1,54c0,4.9-3.7,7.9-7.8,7.9s-7.9-3-7.9-7.9,3.7-7.9,7.9-7.9,7.8,3,7.8,7.9ZM484.7,54c0,4.1,2.9,6.6,6.5,6.6s6.5-2.6,6.5-6.6-2.9-6.6-6.5-6.6-6.5,2.6-6.5,6.6ZM491.3,50c2,0,2.7,1.1,2.7,2.2s-.6,1.8-1.4,2.1l1.8,3.4h-1.5l-1.5-3h-1.6v3h-1.2v-7.8h2.7ZM489.9,53.6h1.4c.9,0,1.4-.6,1.4-1.3s-.4-1.2-1.4-1.2h-1.4v2.4Z"/>
  </g>
</svg>