<?xml version="1.0" encoding="UTF-8"?>
<svg id="logo" xmlns="http://www.w3.org/2000/svg" version="1.1" viewBox="0 0 500.1 63.6">
  <defs>
    <style>
      .cls-1 {
        fill: #fff;
        stroke-width: 0px;
      }
    </style>
  </defs>
  <path class="cls-1" d="M497.2,33.7c-1.9-1.7-5.1-3.1-9.4-4l-3.3-.7c-3.2-.7-5.3-1.5-6.5-2.5-1.2-.9-1.7-2.2-1.7-3.9s.7-3,2-3.9c1.3-.9,3.2-1.4,5.7-1.4s5.5.6,6.9,1.7c1.4,1.1,2.2,3,2.4,5.4h0c0,0,5.8,0,5.8,0h0c0-3.8-1.4-6.8-3.9-8.9-2.5-2.1-6.3-3.2-11.3-3.2s-7.5.9-9.9,2.8c-2.4,1.9-3.7,4.4-3.7,7.6s1,5.6,3,7.4c2,1.8,5,3.1,8.9,3.9l3.3.7c3.2.7,5.5,1.5,6.7,2.4,1.2.9,1.8,2.2,1.8,3.8s-.8,3.6-2.3,4.7c-1.5,1.1-3.7,1.6-6.5,1.6s-6-.7-7.7-2.1c-1.7-1.4-2.6-3.6-2.7-6.4h0c0,0-5.8,0-5.8,0h0c0,4.4,1.5,7.8,4.3,10.1,2.8,2.3,6.8,3.4,11.8,3.4s8.3-1,10.9-3.1c2.6-2,4-4.9,4-8.4s-1-5.4-2.9-7.1M433.1,31.5l13.3-18.3h-6.5l-10.1,13.8-10.1-13.8h-6.5l13.3,18.3-14.4,19.9h6.5l11.2-15.4,11.2,15.4h6.5l-14.4-19.9ZM459.8,8.4h-2.9v47.8h2.9V8.4ZM397.6,33.7c-1.9-1.7-5.1-3.1-9.4-4l-3.3-.7c-3.2-.7-5.3-1.5-6.5-2.5-1.2-.9-1.7-2.2-1.7-3.9s.7-3,2-3.9c1.3-.9,3.2-1.4,5.7-1.4s5.5.6,6.9,1.7c1.4,1.1,2.2,3,2.4,5.4h0c0,0,5.8,0,5.8,0h0c0-3.8-1.4-6.8-3.9-8.9-2.5-2.1-6.3-3.2-11.3-3.2s-7.5.9-9.9,2.8c-2.4,1.9-3.7,4.4-3.7,7.6s1,5.6,3,7.4c2,1.8,5,3.1,8.9,3.9l3.3.7c3.2.7,5.5,1.5,6.7,2.4,1.2.9,1.8,2.2,1.8,3.8s-.8,3.6-2.2,4.7c-1.5,1.1-3.7,1.6-6.5,1.6s-6-.7-7.7-2.1c-1.7-1.4-2.6-3.6-2.7-6.4h0c0,0-5.8,0-5.8,0h0c0,4.4,1.5,7.8,4.3,10.1,2.8,2.3,6.8,3.4,11.8,3.4s8.3-1,10.9-3.1c2.6-2,4-4.9,4-8.4s-1-5.4-2.9-7.1M366.5,18.4v-5.2h-27.3v38.2h27.3v-5.2h-21.5v-11.8h19v-4.9h-19v-11.1h21.5ZM327.6,51.4h5.8V13.2h-5.8v38.2ZM298.3,18.2h10.5c2.4,0,4.3.5,5.6,1.5,1.3,1,1.9,2.6,1.9,4.6s-.6,3.7-1.9,4.8c-1.3,1.1-3,1.7-5.2,1.7h-11v-12.6ZM321.7,46.7l-.4-5.9c0-2.1-.5-3.8-1.4-5.1-.8-1.2-2.2-2.1-3.9-2.7,2-.7,3.5-1.8,4.6-3.3,1.1-1.6,1.7-3.6,1.7-5.9,0-3.3-1.2-5.9-3.5-7.8-2.3-1.9-5.6-2.8-9.6-2.8h-16.7v38.2h5.8v-15.7h11c2.2,0,3.8.5,4.8,1.5,1,1,1.5,2.7,1.6,5.2l.2,4.1c0,2.2.4,3.9,1.1,4.9h0s6,0,6,0h0c-.7-1.2-1.1-2.8-1.3-4.7M251.7,33.7c-1.9-1.7-5.1-3.1-9.4-4l-3.3-.7c-3.2-.7-5.3-1.5-6.5-2.5-1.2-.9-1.7-2.2-1.7-3.9s.7-3,2-3.9c1.3-.9,3.2-1.4,5.7-1.4s5.5.6,6.9,1.7c1.4,1.1,2.2,3,2.4,5.4h0c0,0,5.8,0,5.8,0h0c0-3.8-1.4-6.8-3.9-8.9-2.5-2.1-6.3-3.2-11.3-3.2s-7.5.9-9.9,2.8c-2.4,1.9-3.7,4.4-3.7,7.6s1,5.6,3,7.4c2,1.8,5,3.1,8.9,3.9l3.3.7c3.2.7,5.5,1.5,6.7,2.4,1.2.9,1.8,2.2,1.8,3.8s-.8,3.6-2.3,4.7c-1.5,1.1-3.7,1.6-6.5,1.6s-6-.7-7.7-2.1c-1.7-1.4-2.6-3.6-2.7-6.4h0c0,0-5.8,0-5.8,0h0c0,4.4,1.5,7.8,4.3,10.1,2.8,2.3,6.8,3.4,11.8,3.4s8.3-1,10.9-3.1c2.6-2,4-4.9,4-8.4s-1-5.4-2.9-7.1M265.1,18.4v11.1h19v4.9h-19v11.8h21.5v5.2h-27.3V13.2h27.3v5.2h-21.5ZM202.1,31.5l13.3-18.3h-6.5l-10.1,13.8-10.1-13.8h-6.5l13.3,18.3-14.4,19.9h6.5l11.2-15.4,11.2,15.4h6.5l-14.4-19.9ZM152.4,32.3c0,4.5,1.2,8.1,3.5,10.7,2.3,2.7,5.3,4,9.2,4s6.9-1.3,9.2-4h0c2.3-2.6,3.4-6.2,3.4-10.7s-1.1-8.2-3.4-10.8c-2.3-2.6-5.4-3.9-9.2-3.9s-6.9,1.3-9.2,3.9c-2.3,2.7-3.5,6.3-3.5,10.8M183.6,32.3c0,3-.4,5.7-1.3,8.1-.8,2.4-2.1,4.5-3.8,6.4-1.7,1.8-3.7,3.2-6,4.1-2.2.9-4.8,1.4-7.6,1.4s-5.4-.5-7.6-1.4c-2.2-.9-4.2-2.3-5.9-4.1-1.7-1.8-3-4-3.9-6.3-.9-2.4-1.3-5.1-1.3-8.1s.4-5.7,1.3-8.1c.9-2.4,2.2-4.6,3.9-6.4,1.7-1.8,3.7-3.2,5.9-4.1,2.2-.9,4.8-1.4,7.6-1.4s5.3.5,7.6,1.4c2.2.9,4.2,2.3,6,4.1,1.7,1.9,3,4,3.8,6.4.8,2.4,1.3,5.1,1.3,8.1M138.5,40.4c0-2-.6-3.5-1.8-4.5-1.2-1-3-1.5-5.4-1.5h-11.8v12h11.8c2.3,0,4.1-.5,5.4-1.5,1.2-1,1.9-2.5,1.9-4.4M119.5,29.5h11c2.2,0,3.9-.5,5-1.5,1.1-1,1.7-2.5,1.7-4.4s-.6-3-1.7-4c-1.1-1-2.8-1.4-4.9-1.4h-11v11.3ZM144.4,40.5c0,3.4-1.1,6-3.3,8-2.2,1.9-5.4,2.9-9.5,2.9h-17.9v-17h-8.5l3.5-4.9h5V13.2h17.2c3.8,0,6.8.9,8.9,2.7,2.1,1.8,3.1,4.2,3.1,7.2s-1.7,6.5-5,8.3c2.1.8,3.7,2,4.8,3.6,1.1,1.6,1.7,3.4,1.7,5.5M110.6,51.4h-6.5l-11.2-15.4-11.2,15.4h-6.5l14.4-19.9-13.3-18.3h6.5l10.1,13.8,10.1-13.8h6.5l-13.3,18.3,14.4,19.9ZM40.5,17.5s0,0,0,.1,0,0,0,0c6.4,7.6,18.8,25.8,16.4,33.3,0,0,0,.1,0,.2,0,0,.1,0,.2,0,4.1-5.3,6.5-12,6.5-19.3s-3.6-16.8-9.4-22.6c0,0,0,0-.1-.1-.5-.3-3.8-1.3-13.5,8.3M9.5,9.1c0,0,0,0-.1.1C3.6,15,0,23,0,31.8s2.4,13.9,6.5,19.3c0,0,.1,0,.2,0,0,0,0-.1,0-.2-2.4-7.5,10-25.7,16.4-33.3,0,0,0,0,0,0s0,0,0-.1C13.4,7.8,10.1,8.8,9.5,9.1M48.3,4.7C43.5,1.8,38.2,0,31.8,0s-11.7,1.8-16.6,4.7c0,0,0,0,0,.2,0,0,0,0,.2,0,6.2-1.3,15.5,4,16.4,4.5,0,0,0,0,0,0s0,0,0,0c.9-.5,10.2-5.8,16.4-4.5,0,0,.1,0,.2,0,0,0,0-.1,0-.2M31.8,25.5s0,0,.1,0c9.5,7.2,25.8,25.1,20.8,30.2-5.6,4.9-12.9,7.9-20.9,7.9s-15.3-3-20.9-7.9c-5-5.1,11.3-22.9,20.8-30.2,0,0,0,0,.1,0"/>
</svg>