<?xml version="1.0" encoding="UTF-8"?>
<svg id="logo" xmlns="http://www.w3.org/2000/svg" version="1.1" viewBox="0 0 500.6 108.7">
  <defs>
    <style>
      .cls-1 {
        fill: #fff;
        stroke-width: 0px;
      }
    </style>
  </defs>
  <path class="cls-1" d="M52.7,0c9.8,1.8,24,6.1,31.6,8.7,19.4,6.7,26,15,26,33.7s-11.3,25.2-25.6,18.3V26.6c0-4-.7-7.7-4.5-8.7-2.9-.9-4.7,1.7-4.7,5.8v85.1l-23-7.3V0M80,107.2l50.1-18s6.7-2.5,9.5-6c2.7-3.5,1.5-8.5-9.3-12-9.6-3.6-21.9-4.9-31.8-3.8-10,1.1-17.1,3.6-17.1,3.6l-1.4.5v13.8l24.6-8.7c4.2-1.5,10.3-1.8,13.8-.7,3.4,1.1,2.7,3.2-1.4,4.8l-36.9,13.1v13.3ZM10.6,92.5c11.9,4,24,4.7,35.4,2.8.7-.1,1.6-.3,2.3-.4v-11.9l-11.4,4.1c-4.2,1.5-10.3,1.9-13.7.7-3.4-1.1-2.7-3.2,1.4-4.7l23.7-8.5v-13.4l-32.9,11.7s-8,2.6-12.6,6c-5.1,3.8-3.2,10.3,7.9,13.4M131.9,97.9c-3.2,0-5.5,2.4-5.5,5.4s2.2,5.4,5.5,5.4,5.4-2.4,5.4-5.4-2.2-5.4-5.4-5.4M131.9,107.9c-2.8,0-4.6-2.1-4.6-4.6s1.8-4.6,4.6-4.6,4.6,2.1,4.6,4.6-1.8,4.6-4.6,4.6M129.7,106.4h1.1v-2.7h.7c.9,0,1.2.2,1.3,1,.1.4.3,1.2.5,1.7h1.2c-.2-.6-.4-1.3-.6-2-.2-.7-.5-1-.9-1.1h0c.8-.3,1.2-.8,1.2-1.6,0-1.3-.8-1.6-2-1.6h-2.5v6.3ZM130.9,101h1.1c.6,0,1.2.1,1.2,1s-.5,1-1.3,1h-1v-2ZM309.7,87c9.7,0,17.5-7.9,17.5-17.5v-30.2c0-5.8,4.7-10.6,10.6-10.6h34c.3,0,.5-.2.5-.5v-6c0-.3-.2-.5-.5-.5h-41c-9.7,0-17.5,7.9-17.5,17.5v30.2c0,5.8-4.7,10.6-10.6,10.6h-33.6c-.3,0-.5.2-.5.5v6c0,.3.2.5.5.5h40.5ZM386.4,46.3c0,5.8,4.7,10.6,10.6,10.6h59.9c6.4,0,11.7,5.2,11.7,11.6,0,6.4-5.2,11.6-11.6,11.6,0,0-52.6,0-70.1,0-.3,0-.5.2-.5.5v6c0,.3.2.5.5.5h77.1c10.3,0,18.6-8.3,18.6-18.6s-8.3-18.6-18.6-18.6h-58.6c-2.8,0-5-2.2-5-5v-15.7c0-.3.2-.5.5-.5h78.7c.3,0,.5-.2.5-.5v-6c0-.3-.2-.5-.5-.5h-92.7c-.3,0-.5.2-.5.5,0,3.6,0,15.2,0,24M194.8,49.9c-9.7,0-17.5,7.9-17.5,17.5,0,0,0,13.9,0,19.1,0,.3.2.5.5.5h13c.3,0,.5-.2.5-.5v-19.1c0-5.8,4.7-10.6,10.6-10.6h54c9.7,0,17.5-7.9,17.5-17.5s-7.9-17.5-17.5-17.5h-78.1c-.3,0-.5.2-.5.5v6c0,.3.2.5.5.5h71.1c5.8,0,10.6,4.7,10.6,10.6s-4.7,10.6-10.6,10.6h-54ZM500.6,81.5c0,3.1-2.2,5.4-5.4,5.4s-5.5-2.4-5.5-5.4,2.2-5.4,5.5-5.4,5.4,2.4,5.4,5.4ZM499.8,81.5c0-2.5-1.8-4.6-4.6-4.6s-4.6,2.1-4.6,4.6,1.8,4.6,4.6,4.6,4.6-2.1,4.6-4.6ZM497.3,82.6c.2.7.4,1.4.6,2h-1.2c-.2-.5-.4-1.3-.5-1.7-.2-.7-.4-1-1.3-1h-.7v2.7h-1.1v-6.3h2.5c1.2,0,2,.3,2,1.6s-.4,1.3-1.2,1.5h0c.4.1.7.4.9,1.2ZM496.5,80.1c0-.9-.6-1-1.2-1h-1.1v2h1c.8,0,1.3-.3,1.3-1Z"/>
</svg>